<svg width="24" height="24" viewBox="0 0 24 24" fill="none" xmlns="http://www.w3.org/2000/svg">
<path d="M20.0033 7.99842H16.0016C15.4491 7.99842 15.0012 7.55052 15.0012 6.998V2.99634" stroke="#3661E3" stroke-width="1.5" stroke-linecap="round" stroke-linejoin="round"/>
<path d="M5.9975 7.99842V4.99717C5.9975 3.89214 6.8933 2.99634 7.99833 2.99634H15.1733C15.7039 2.99634 16.2128 3.20733 16.5879 3.58258L19.4171 6.41176C19.7923 6.7869 20.0033 7.29574 20.0033 7.82635V19.003C20.0033 20.108 19.1075 21.0038 18.0025 21.0038H7.99833C6.8933 21.0038 5.9975 20.108 5.9975 19.003V18.0026" stroke="#3661E3" stroke-width="1.5" stroke-linecap="round" stroke-linejoin="round"/>
<path d="M9.8611 11.9622L7.36006 14.4632L5.85944 12.9626" stroke="#3661E3" stroke-width="1.5" stroke-linecap="round" stroke-linejoin="round"/>
<rect x="2.99622" y="7.99854" width="10.0042" height="10.0042" rx="3" stroke="#3661E3" stroke-width="1.5" stroke-linecap="round" stroke-linejoin="round"/>
</svg>
