<svg width="20" height="18" viewBox="0 0 20 18" fill="none" xmlns="http://www.w3.org/2000/svg">
<path d="M17.68 2.79761V9.50705" stroke="#FF74B9" stroke-width="1.5" stroke-linecap="round" stroke-linejoin="round"/>
<path d="M18.64 15.2669H12.88" stroke="#FF74B9" stroke-width="1.5" stroke-linecap="round" stroke-linejoin="round"/>
<path d="M16.72 13.3469L18.64 15.2669L16.72 17.1869" stroke="#FF74B9" stroke-width="1.5" stroke-linecap="round" stroke-linejoin="round"/>
<path d="M9.03999 13.347H3.27999C2.21919 13.347 1.35999 12.4878 1.35999 11.427V2.79761" stroke="#FF74B9" stroke-width="1.5" stroke-linecap="round" stroke-linejoin="round"/>
<path fill-rule="evenodd" clip-rule="evenodd" d="M3.29055 0.866943H15.7504C16.816 0.866943 17.6809 1.73094 17.6809 2.7975V2.7975C17.6809 3.43782 17.3632 4.0359 16.8333 4.39494L11.6905 7.8807C10.3801 8.7687 8.65983 8.7687 7.34943 7.8807L2.20767 4.3959C1.67775 4.03686 1.35999 3.43782 1.35999 2.79846V2.7975C1.35999 1.73094 2.22399 0.866943 3.29055 0.866943Z" stroke="#FF74B9" stroke-width="1.5" stroke-linecap="round" stroke-linejoin="round"/>
</svg>
