<svg width="24" height="24" viewBox="0 0 24 24" fill="none" xmlns="http://www.w3.org/2000/svg">
<rect width="24" height="24" rx="12" fill="#EA593C"/>
<path d="M12.064 19.5C8.72286 19.491 5.81162 17.3804 4.86195 14.2324C4.06879 11.5946 4.58301 9.18349 6.36698 7.07645C7.46365 5.78162 8.87788 4.98796 10.5404 4.64833C11.4705 4.45865 12.4284 4.45081 13.3614 4.62525C13.4657 4.64431 13.4667 4.67241 13.4261 4.75669C12.9672 5.71188 12.5105 6.66842 12.056 7.62629C12.0447 7.65624 12.0239 7.6816 11.9966 7.6984C11.9694 7.7152 11.9373 7.72248 11.9055 7.7191C10.9495 7.74354 10.0292 8.08698 9.29097 8.69479C8.55271 9.30259 8.03893 10.1398 7.83138 11.0733C7.37335 13.1136 8.47704 15.2242 10.4246 15.9722C11.9702 16.5657 13.4085 16.3294 14.7169 15.315C14.7836 15.2648 14.8112 15.2548 14.8589 15.3376C15.3606 16.2155 15.8666 17.0918 16.377 17.9664C16.4216 18.0431 16.4056 18.0777 16.3393 18.1239C15.3538 18.8211 14.2138 19.2687 13.0172 19.4283C12.701 19.469 12.3828 19.493 12.064 19.5Z" fill="white"/>
<path d="M17.2548 17.3279C17.2137 17.3058 17.2022 17.2606 17.1811 17.224C16.6105 16.2374 16.0419 15.2497 15.4754 14.2611C15.4561 14.2206 15.4247 14.1871 15.3855 14.1653C15.3463 14.1436 15.3012 14.1346 15.2567 14.1397C14.1239 14.1432 12.9916 14.1397 11.8588 14.1397H11.7178C11.7168 14.0962 11.7326 14.0539 11.762 14.0218C12.3372 13.0225 12.9128 12.0231 13.4887 11.0238C13.504 10.9907 13.5293 10.9633 13.5609 10.9453C13.5926 10.9273 13.6291 10.9196 13.6653 10.9234C14.8249 10.9264 15.9841 10.9264 17.143 10.9234C17.179 10.9197 17.2153 10.9273 17.2467 10.9453C17.2781 10.9633 17.3031 10.9908 17.3181 11.0238C17.8963 12.0315 18.4773 13.0378 19.0609 14.0429C19.0804 14.0686 19.0913 14.0998 19.0922 14.1321C19.0931 14.1644 19.0839 14.1962 19.0659 14.223C18.4796 15.2354 17.8955 16.2467 17.3135 17.2571C17.298 17.2827 17.291 17.3178 17.2548 17.3279Z" fill="white"/>
<path d="M14.8118 6.71526C14.6041 6.50756 14.4104 6.3089 14.2097 6.11324C14.1475 6.05304 14.1912 6.00839 14.2178 5.96274C14.4474 5.56289 14.8213 5.26602 15.2628 5.13296C15.5303 5.04468 15.8134 5.01335 16.0937 5.041C16.3741 5.06865 16.6456 5.15466 16.8907 5.2935C17.7937 5.78163 17.713 6.91392 17.1917 7.42563C16.9941 7.61592 16.7703 7.77692 16.527 7.90373C16.2762 8.03718 16.0253 8.1631 15.7795 8.30507C15.5753 8.42196 15.4163 8.58351 15.3425 8.81729C15.3124 8.9116 15.3305 8.93618 15.4313 8.93518C16.0945 8.93117 16.7583 8.93518 17.422 8.93117C17.5223 8.93117 17.5599 8.95023 17.5559 9.0596C17.5469 9.29388 17.5504 9.52867 17.5559 9.76195C17.5559 9.83619 17.5354 9.86228 17.4591 9.86228C16.3925 9.86028 15.3263 9.86028 14.2604 9.86228C14.2102 9.86228 14.1636 9.86228 14.1631 9.78954C14.1631 9.05107 14.2995 8.36327 14.8775 7.83651C15.1528 7.59272 15.4618 7.38996 15.795 7.23449C15.9777 7.14519 16.1623 7.05991 16.3218 6.93048C16.4613 6.8171 16.5576 6.67964 16.5676 6.49402C16.5827 6.20354 16.3529 5.98782 16.0057 5.96525C15.5066 5.92963 15.1464 6.15438 14.8945 6.57178C14.8694 6.61291 14.8464 6.65506 14.8118 6.71526Z" fill="white"/>
</svg>
