<svg width="24" height="24" viewBox="0 0 24 24" fill="none" xmlns="http://www.w3.org/2000/svg">
<path fill-rule="evenodd" clip-rule="evenodd" d="M12.4192 12.4003L14.2869 12.0262C14.557 11.9731 14.8055 11.8415 15.0012 11.648L20.4555 6.19775C21.1867 5.46609 21.1867 4.28031 20.4555 3.54865V3.54865C19.7238 2.81744 18.5381 2.81744 17.8064 3.54865L12.3521 8.99892C12.1572 9.19418 12.0242 9.44267 11.97 9.71322L11.5998 11.581C11.5562 11.8089 11.6284 12.0436 11.7925 12.2077C11.9565 12.3718 12.1912 12.4439 12.4192 12.4003Z" stroke="#32A4FA" stroke-width="1.5" stroke-linecap="round" stroke-linejoin="round"/>
<path d="M9.36389 14.4252C12.4892 17.5505 16.767 18.3428 18.9129 16.1939C20.7216 14.3852 20.4405 11.0718 18.4447 8.20459" stroke="#32A4FA" stroke-width="1.5" stroke-linecap="round" stroke-linejoin="round"/>
<path d="M15.8416 5.50931C12.083 2.61811 7.38308 2.25696 4.76499 4.87505C1.83477 7.80527 2.6271 13.3476 6.53373 17.2542C8.24429 18.9929 10.3587 20.2811 12.6883 21.0038" stroke="#32A4FA" stroke-width="1.5" stroke-linecap="round" stroke-linejoin="round"/>
</svg>
