<svg width="47" height="47" viewBox="0 0 47 47" fill="none" xmlns="http://www.w3.org/2000/svg">
<g clip-path="url(#clip0_67_1026)">
<path d="M23.5084 46.0227C36.0775 46.0227 46.2668 35.8334 46.2668 23.2643C46.2668 10.6951 36.0775 0.505859 23.5084 0.505859C10.9393 0.505859 0.75 10.6951 0.75 23.2643C0.75 35.8334 10.9393 46.0227 23.5084 46.0227Z" fill="#55ACEE"/>
<path d="M37.4526 16.8618C36.4773 17.2942 35.4282 17.5867 34.328 17.7174C35.4513 17.0443 36.3134 15.9794 36.7203 14.7084C35.6692 15.3319 34.5045 15.7843 33.2659 16.0281C32.2736 14.9713 30.8597 14.3108 29.2942 14.3108C26.2904 14.3108 23.8543 16.747 23.8543 19.7507C23.8543 20.1771 23.9026 20.5921 23.9959 20.9905C19.4748 20.7637 15.4662 18.5981 12.783 15.3059C12.3148 16.1092 12.0463 17.0443 12.0463 18.0411C12.0463 19.928 13.0073 21.5937 14.4662 22.569C13.5749 22.541 12.7355 22.2964 12.0024 21.8879C12.002 21.911 12.002 21.9341 12.002 21.9568C12.002 24.5926 13.8779 26.791 16.366 27.2904C15.91 27.4154 15.4285 27.4815 14.9331 27.4815C14.5818 27.4815 14.2414 27.4479 13.9096 27.3846C14.6017 29.5453 16.6103 31.1181 18.9913 31.1624C17.1291 32.6216 14.7838 33.491 12.2345 33.491C11.7963 33.491 11.3623 33.4655 10.9375 33.4147C13.3436 34.9588 16.2038 35.859 19.2757 35.859C29.2816 35.859 34.7536 27.57 34.7536 20.3807C34.7536 20.145 34.7483 19.9101 34.7377 19.6773C35.8014 18.9105 36.7236 17.9527 37.4526 16.8618Z" fill="#F1F2F2"/>
</g>
<defs>
<clipPath id="clip0_67_1026">
<rect width="45.5172" height="45.5172" fill="white" transform="translate(0.75 0.505859)"/>
</clipPath>
</defs>
</svg>
